<mxfile host="app.diagrams.net" agent="Mozilla/5.0 (Windows NT 10.0; Win64; x64) AppleWebKit/537.36 (KHTML, like Gecko) Chrome/127.0.0.0 Safari/537.36" version="24.7.6">
  <diagram name="Page-1" id="iIopjcdTCLAurM3S_p-q">
    <mxGraphModel dx="733" dy="390" grid="1" gridSize="10" guides="1" tooltips="1" connect="1" arrows="1" fold="1" page="1" pageScale="1" pageWidth="4681" pageHeight="3300" math="0" shadow="0">
      <root>
        <mxCell id="0" />
        <mxCell id="1" parent="0" />
        <mxCell id="5n2p41s65JOJrow0uBH8-1" value="" style="ellipse;fillColor=strokeColor;html=1;" vertex="1" parent="1">
          <mxGeometry x="440" width="40" height="40" as="geometry" />
        </mxCell>
        <mxCell id="5n2p41s65JOJrow0uBH8-2" value="" style="ellipse;html=1;shape=endState;fillColor=strokeColor;" vertex="1" parent="1">
          <mxGeometry x="440" y="720" width="40" height="40" as="geometry" />
        </mxCell>
        <mxCell id="5n2p41s65JOJrow0uBH8-3" value="UCO5" style="text;html=1;align=center;verticalAlign=middle;resizable=0;points=[];autosize=1;strokeColor=none;fillColor=none;" vertex="1" parent="1">
          <mxGeometry x="500" y="8" width="60" height="30" as="geometry" />
        </mxCell>
        <mxCell id="5n2p41s65JOJrow0uBH8-4" value="" style="endArrow=block;html=1;rounded=0;align=center;verticalAlign=bottom;endFill=0;labelBackgroundColor=none;endSize=8;exitX=0.5;exitY=1;exitDx=0;exitDy=0;" edge="1" parent="1" source="5n2p41s65JOJrow0uBH8-1">
          <mxGeometry relative="1" as="geometry">
            <mxPoint x="450" y="70" as="sourcePoint" />
            <mxPoint x="460" y="120" as="targetPoint" />
          </mxGeometry>
        </mxCell>
        <mxCell id="5n2p41s65JOJrow0uBH8-5" value="" style="resizable=0;html=1;align=center;verticalAlign=top;labelBackgroundColor=none;" connectable="0" vertex="1" parent="5n2p41s65JOJrow0uBH8-4">
          <mxGeometry relative="1" as="geometry" />
        </mxCell>
        <mxCell id="5n2p41s65JOJrow0uBH8-6" value="Displaying&lt;br&gt;QR Code" style="html=1;align=center;verticalAlign=top;rounded=1;absoluteArcSize=1;arcSize=10;dashed=0;whiteSpace=wrap;" vertex="1" parent="1">
          <mxGeometry x="390" y="480" width="140" height="40" as="geometry" />
        </mxCell>
        <mxCell id="5n2p41s65JOJrow0uBH8-7" value="" style="endArrow=block;html=1;rounded=0;align=center;verticalAlign=bottom;endFill=0;labelBackgroundColor=none;endSize=8;" edge="1" parent="1">
          <mxGeometry relative="1" as="geometry">
            <mxPoint x="459.5" y="640" as="sourcePoint" />
            <mxPoint x="459.5" y="720" as="targetPoint" />
          </mxGeometry>
        </mxCell>
        <mxCell id="5n2p41s65JOJrow0uBH8-8" value="" style="resizable=0;html=1;align=center;verticalAlign=top;labelBackgroundColor=none;" connectable="0" vertex="1" parent="5n2p41s65JOJrow0uBH8-7">
          <mxGeometry relative="1" as="geometry" />
        </mxCell>
        <mxCell id="5n2p41s65JOJrow0uBH8-9" value="Click Book" style="endArrow=block;html=1;rounded=0;align=center;verticalAlign=bottom;endFill=0;labelBackgroundColor=none;endSize=8;exitX=0.5;exitY=1;exitDx=0;exitDy=0;" edge="1" parent="1" source="5n2p41s65JOJrow0uBH8-15">
          <mxGeometry x="-0.25" y="70" relative="1" as="geometry">
            <mxPoint x="450" y="400" as="sourcePoint" />
            <mxPoint x="460" y="480" as="targetPoint" />
            <mxPoint as="offset" />
          </mxGeometry>
        </mxCell>
        <mxCell id="5n2p41s65JOJrow0uBH8-10" value="Display QR Code" style="resizable=0;html=1;align=center;verticalAlign=top;labelBackgroundColor=none;" connectable="0" vertex="1" parent="5n2p41s65JOJrow0uBH8-9">
          <mxGeometry relative="1" as="geometry">
            <mxPoint x="70" as="offset" />
          </mxGeometry>
        </mxCell>
        <mxCell id="5n2p41s65JOJrow0uBH8-11" value="Click Confirm" style="endArrow=block;html=1;rounded=0;align=center;verticalAlign=bottom;endFill=0;labelBackgroundColor=none;endSize=8;" edge="1" parent="1">
          <mxGeometry x="-0.25" y="70" relative="1" as="geometry">
            <mxPoint x="460" y="280" as="sourcePoint" />
            <mxPoint x="460" y="360" as="targetPoint" />
            <mxPoint as="offset" />
          </mxGeometry>
        </mxCell>
        <mxCell id="5n2p41s65JOJrow0uBH8-12" value="Display Seat info" style="resizable=0;html=1;align=center;verticalAlign=top;labelBackgroundColor=none;" connectable="0" vertex="1" parent="5n2p41s65JOJrow0uBH8-11">
          <mxGeometry relative="1" as="geometry">
            <mxPoint x="60" as="offset" />
          </mxGeometry>
        </mxCell>
        <mxCell id="5n2p41s65JOJrow0uBH8-13" value="Click Book" style="endArrow=block;html=1;rounded=0;align=center;verticalAlign=bottom;endFill=0;labelBackgroundColor=none;endSize=8;" edge="1" parent="1">
          <mxGeometry x="-0.25" y="60" relative="1" as="geometry">
            <mxPoint x="460" y="160" as="sourcePoint" />
            <mxPoint x="460" y="240" as="targetPoint" />
            <mxPoint as="offset" />
          </mxGeometry>
        </mxCell>
        <mxCell id="5n2p41s65JOJrow0uBH8-14" value="Display Ticket Info" style="resizable=0;html=1;align=center;verticalAlign=top;labelBackgroundColor=none;" connectable="0" vertex="1" parent="5n2p41s65JOJrow0uBH8-13">
          <mxGeometry relative="1" as="geometry">
            <mxPoint x="60" as="offset" />
          </mxGeometry>
        </mxCell>
        <mxCell id="5n2p41s65JOJrow0uBH8-15" value="Displaying&lt;br&gt;Seat Info" style="html=1;align=center;verticalAlign=top;rounded=1;absoluteArcSize=1;arcSize=10;dashed=0;whiteSpace=wrap;" vertex="1" parent="1">
          <mxGeometry x="390" y="360" width="140" height="40" as="geometry" />
        </mxCell>
        <mxCell id="5n2p41s65JOJrow0uBH8-16" value="Displaying&lt;br&gt;Ticket Info" style="html=1;align=center;verticalAlign=top;rounded=1;absoluteArcSize=1;arcSize=10;dashed=0;whiteSpace=wrap;" vertex="1" parent="1">
          <mxGeometry x="390" y="240" width="140" height="40" as="geometry" />
        </mxCell>
        <mxCell id="5n2p41s65JOJrow0uBH8-17" value="Displaying&lt;div&gt;Review Page&lt;/div&gt;" style="html=1;align=center;verticalAlign=top;rounded=1;absoluteArcSize=1;arcSize=10;dashed=0;whiteSpace=wrap;" vertex="1" parent="1">
          <mxGeometry x="390" y="120" width="140" height="40" as="geometry" />
        </mxCell>
        <mxCell id="5n2p41s65JOJrow0uBH8-20" value="Displaying&lt;br&gt;Main Page" style="html=1;align=center;verticalAlign=top;rounded=1;absoluteArcSize=1;arcSize=10;dashed=0;whiteSpace=wrap;" vertex="1" parent="1">
          <mxGeometry x="390" y="600" width="140" height="40" as="geometry" />
        </mxCell>
        <mxCell id="5n2p41s65JOJrow0uBH8-21" value="Press Return" style="endArrow=block;html=1;rounded=0;align=center;verticalAlign=bottom;endFill=0;labelBackgroundColor=none;endSize=8;exitX=0.5;exitY=1;exitDx=0;exitDy=0;" edge="1" parent="1">
          <mxGeometry x="-0.5" y="81" relative="1" as="geometry">
            <mxPoint x="459.5" y="520" as="sourcePoint" />
            <mxPoint x="459.5" y="600" as="targetPoint" />
            <mxPoint as="offset" />
          </mxGeometry>
        </mxCell>
        <mxCell id="5n2p41s65JOJrow0uBH8-22" value="Display Main Page" style="resizable=0;html=1;align=center;verticalAlign=top;labelBackgroundColor=none;" connectable="0" vertex="1" parent="5n2p41s65JOJrow0uBH8-21">
          <mxGeometry relative="1" as="geometry">
            <mxPoint x="81" as="offset" />
          </mxGeometry>
        </mxCell>
        <mxCell id="5n2p41s65JOJrow0uBH8-23" value="No Ticket Selected" style="endArrow=block;html=1;rounded=0;align=center;verticalAlign=bottom;endFill=0;labelBackgroundColor=none;endSize=8;exitX=1;exitY=0.25;exitDx=0;exitDy=0;entryX=1;entryY=1;entryDx=0;entryDy=0;" edge="1" parent="1" source="5n2p41s65JOJrow0uBH8-17" target="5n2p41s65JOJrow0uBH8-17">
          <mxGeometry x="0.0303" y="60" relative="1" as="geometry">
            <mxPoint x="370" y="180" as="sourcePoint" />
            <mxPoint x="600" y="160" as="targetPoint" />
            <Array as="points">
              <mxPoint x="680" y="130" />
              <mxPoint x="680" y="160" />
            </Array>
            <mxPoint as="offset" />
          </mxGeometry>
        </mxCell>
        <mxCell id="5n2p41s65JOJrow0uBH8-24" value="Display Error Mesage" style="resizable=0;html=1;align=center;verticalAlign=top;labelBackgroundColor=none;" connectable="0" vertex="1" parent="5n2p41s65JOJrow0uBH8-23">
          <mxGeometry relative="1" as="geometry">
            <mxPoint x="60" y="15" as="offset" />
          </mxGeometry>
        </mxCell>
        <mxCell id="5n2p41s65JOJrow0uBH8-29" value="" style="endArrow=none;html=1;endSize=12;startArrow=none;startSize=14;startFill=0;edgeStyle=orthogonalEdgeStyle;align=center;verticalAlign=bottom;endFill=0;rounded=0;" edge="1" parent="1">
          <mxGeometry y="3" relative="1" as="geometry">
            <mxPoint x="500" y="550" as="sourcePoint" />
            <mxPoint x="580" y="550" as="targetPoint" />
          </mxGeometry>
        </mxCell>
        <mxCell id="5n2p41s65JOJrow0uBH8-30" value="" style="endArrow=none;html=1;endSize=12;startArrow=none;startSize=14;startFill=0;edgeStyle=orthogonalEdgeStyle;align=center;verticalAlign=bottom;endFill=0;rounded=0;" edge="1" parent="1">
          <mxGeometry y="3" relative="1" as="geometry">
            <mxPoint x="490" y="440" as="sourcePoint" />
            <mxPoint x="570" y="440" as="targetPoint" />
          </mxGeometry>
        </mxCell>
        <mxCell id="5n2p41s65JOJrow0uBH8-31" value="" style="endArrow=none;html=1;endSize=12;startArrow=none;startSize=14;startFill=0;edgeStyle=orthogonalEdgeStyle;align=center;verticalAlign=bottom;endFill=0;rounded=0;" edge="1" parent="1">
          <mxGeometry y="3" relative="1" as="geometry">
            <mxPoint x="490" y="320" as="sourcePoint" />
            <mxPoint x="570" y="320" as="targetPoint" />
          </mxGeometry>
        </mxCell>
        <mxCell id="5n2p41s65JOJrow0uBH8-32" value="" style="endArrow=none;html=1;endSize=12;startArrow=none;startSize=14;startFill=0;edgeStyle=orthogonalEdgeStyle;align=center;verticalAlign=bottom;endFill=0;rounded=0;" edge="1" parent="1">
          <mxGeometry y="3" relative="1" as="geometry">
            <mxPoint x="700" y="160" as="sourcePoint" />
            <mxPoint x="780" y="160" as="targetPoint" />
          </mxGeometry>
        </mxCell>
        <mxCell id="5n2p41s65JOJrow0uBH8-33" value="" style="endArrow=none;html=1;endSize=12;startArrow=none;startSize=14;startFill=0;edgeStyle=orthogonalEdgeStyle;align=center;verticalAlign=bottom;endFill=0;rounded=0;" edge="1" parent="1">
          <mxGeometry y="3" relative="1" as="geometry">
            <mxPoint x="480" y="200" as="sourcePoint" />
            <mxPoint x="560" y="200" as="targetPoint" />
          </mxGeometry>
        </mxCell>
      </root>
    </mxGraphModel>
  </diagram>
</mxfile>
